<?xml version="1.0" encoding="UTF-8" standalone="no"?>
<svg width="100px" height="100px" viewBox="0 0 100 100" version="1.1" xmlns="http://www.w3.org/2000/svg" xmlns:xlink="http://www.w3.org/1999/xlink">
    <!-- Generator: Sketch 39.1 (31720) - http://www.bohemiancoding.com/sketch -->
    <title>logo</title>
    <desc>Created with Sketch.</desc>
    <defs></defs>
    <g id="Symbols" stroke="none" stroke-width="1" fill="none" fill-rule="evenodd">
        <g id="logo" fill="#000000">
            <path d="M50,100 C77.6142375,100 100,77.6142375 100,50 C100,22.3857625 77.6142375,0 50,0 C22.3857625,0 0,22.3857625 0,50 C0,77.6142375 22.3857625,100 50,100 Z M50,97 C75.9573832,97 97,75.9573832 97,50 C97,24.0426168 75.9573832,3 50,3 C24.0426168,3 3,24.0426168 3,50 C3,75.9573832 24.0426168,97 50,97 Z" id="Combined-Shape"></path>
            <path d="M30.44,34.04 C30.44,32.54 29.54,31.1 28.08,30.62 C29.4,30.14 30.12,28.84 30.12,27.48 C30.12,26.5 29.78,25.64 29.24,25.06 C28.44,24.2 27.18,23.82 25.84,23.82 L21.08,23.82 L21.08,38 L25.84,38 C27.24,38 28.6,37.6 29.4,36.74 C30.02,36.08 30.44,35.18 30.44,34.04 L30.44,34.04 Z M28.3,27.62 C28.3,29.2 27.26,29.86 25.78,29.86 L22.82,29.86 L22.82,25.4 L25.74,25.4 C27.1,25.4 28.3,26.14 28.3,27.62 L28.3,27.62 Z M28.62,33.92 C28.62,35.7 27.4,36.36 25.84,36.36 L22.82,36.36 L22.82,31.42 L25.82,31.42 C27.4,31.42 28.62,32.36 28.62,33.92 L28.62,33.92 Z M43.36,38 L38.68,23.82 L36.52,23.82 L31.86,38 L33.68,38 L34.84,34.34 L40.34,34.34 L41.52,38 L43.36,38 Z M39.82,32.66 L35.36,32.66 L37.56,25.64 L39.82,32.66 Z M55.88,38 L50.94,29.42 L55.86,23.82 L53.66,23.82 L47.28,31.1 L47.28,23.82 L45.48,23.82 L45.48,38 L47.28,38 L47.28,33.6 L49.68,30.86 L53.78,38 L55.88,38 Z M67.58,38 L67.58,36.36 L59.98,36.36 L59.98,31.46 L65.72,31.46 L65.72,29.78 L59.98,29.78 L59.98,25.46 L67.58,25.46 L67.58,23.82 L58.2,23.82 L58.2,38 L67.58,38 Z M80.04,38 L77.2,31.76 C77.88,31.54 78.48,31.2 78.9,30.76 C79.58,30.04 79.98,29.2 79.98,27.96 C79.98,26.72 79.54,25.8 78.86,25.08 C78.08,24.28 76.92,23.82 75.26,23.82 L70.4,23.82 L70.4,38 L72.18,38 L72.18,32.1 L75.42,32.1 L78.1,38 L80.04,38 Z M78.14,27.96 C78.14,29.76 76.94,30.44 75.26,30.44 L72.18,30.44 L72.18,25.46 L75.26,25.46 C76.94,25.46 78.14,26.16 78.14,27.96 L78.14,27.96 Z M30.44,74.04 C30.44,72.54 29.54,71.1 28.08,70.62 C29.4,70.14 30.12,68.84 30.12,67.48 C30.12,66.5 29.78,65.64 29.24,65.06 C28.44,64.2 27.18,63.82 25.84,63.82 L21.08,63.82 L21.08,78 L25.84,78 C27.24,78 28.6,77.6 29.4,76.74 C30.02,76.08 30.44,75.18 30.44,74.04 L30.44,74.04 Z M28.3,67.62 C28.3,69.2 27.26,69.86 25.78,69.86 L22.82,69.86 L22.82,65.4 L25.74,65.4 C27.1,65.4 28.3,66.14 28.3,67.62 L28.3,67.62 Z M28.62,73.92 C28.62,75.7 27.4,76.36 25.84,76.36 L22.82,76.36 L22.82,71.42 L25.82,71.42 C27.4,71.42 28.62,72.36 28.62,73.92 L28.62,73.92 Z M42.84,78 L40,71.76 C40.68,71.54 41.28,71.2 41.7,70.76 C42.38,70.04 42.78,69.2 42.78,67.96 C42.78,66.72 42.34,65.8 41.66,65.08 C40.88,64.28 39.72,63.82 38.06,63.82 L33.2,63.82 L33.2,78 L34.98,78 L34.98,72.1 L38.22,72.1 L40.9,78 L42.84,78 Z M40.94,67.96 C40.94,69.76 39.74,70.44 38.06,70.44 L34.98,70.44 L34.98,65.46 L38.06,65.46 C39.74,65.46 40.94,66.16 40.94,67.96 L40.94,67.96 Z M55.42,70.92 C55.42,68.66 55.24,66.6 53.7,65.1 C52.68,64.1 51.42,63.56 50,63.56 C48.58,63.56 47.32,64.1 46.3,65.1 C44.76,66.6 44.58,68.66 44.58,70.92 C44.58,73.18 44.76,75.24 46.3,76.74 C47.32,77.74 48.58,78.28 50,78.28 C51.42,78.28 52.68,77.74 53.7,76.74 C55.24,75.24 55.42,73.18 55.42,70.92 L55.42,70.92 Z M53.58,70.92 C53.58,72.4 53.62,74.3 52.46,75.5 C51.78,76.2 50.96,76.58 50,76.58 C49.04,76.58 48.22,76.2 47.54,75.5 C46.38,74.3 46.42,72.4 46.42,70.92 C46.42,69.44 46.38,67.54 47.54,66.34 C48.22,65.64 49.04,65.26 50,65.26 C50.96,65.26 51.78,65.64 52.46,66.34 C53.62,67.54 53.58,69.44 53.58,70.92 L53.58,70.92 Z M67.88,63.82 L66.2,63.82 L65.5,75.36 L63.26,67.88 L61.6,67.88 L59.36,75.38 L58.64,63.82 L56.96,63.82 L57.94,78 L60.1,78 L62.4,70.18 L64.76,78 L66.9,78 L67.88,63.82 Z M79.6,78 L79.6,63.82 L77.88,63.82 L77.88,75.28 L72.22,63.82 L70,63.82 L70,78 L71.74,78 L71.74,66.6 L77.42,78 L79.6,78 Z" id="BAKER-BROWN"></path>
            <polygon id="+" points="56.02 51.4399992 56.02 50.0599992 51.2 50.0599992 51.2 45.1199992 49.8 45.1199992 49.8 50.0599992 45 50.0599992 45 51.4399992 49.8 51.4399992 49.8 56.6999992 51.2 56.6999992 51.2 51.4399992"></polygon>
        </g>
    </g>
</svg>